<svg xmlns="http://www.w3.org/2000/svg" viewBox="0 0 64 64" role="img" aria-label="Fuel calculator icon">
  <defs>
    <linearGradient id="g" x1="0%" x2="100%" y1="0%" y2="100%">
      <stop offset="0%" stop-color="#1e40af" />
      <stop offset="100%" stop-color="#0ea5e9" />
    </linearGradient>
  </defs>
  <rect width="64" height="64" rx="14" fill="url(#g)" />
  <path d="M22 20h12a6 6 0 0 1 6 6v20h-4V36h-8v10h-6V26a6 6 0 0 1 6-6Zm6 4a2 2 0 0 0-2 2v6h8v-6a2 2 0 0 0-2-2Zm16-2h6a4 4 0 0 1 4 4v17.5a4.5 4.5 0 0 1-9 0V37h-1v-5h4v9.5a1.5 1.5 0 0 0 3 0V26a1 1 0 0 0-1-1h-6Z" fill="#f8fafc"/>
</svg>
